<?xml version="1.0" encoding="iso-8859-1"?>
<!-- Generator: Adobe Illustrator 19.0.0, SVG Export Plug-In . SVG Version: 6.00 Build 0)  -->
<svg version="1.1" id="Layer_1" xmlns="http://www.w3.org/2000/svg" xmlns:xlink="http://www.w3.org/1999/xlink" x="0px" y="0px"
	 viewBox="0 0 495 495" style="enable-background:new 0 0 495 495;" xml:space="preserve">
<g>
	<polygon style="fill:#FF3501;" points="247.5,0 247.5,40 455,40 455,455 247.5,455 247.5,495 495,495 495,0 	"/>
	<polygon style="fill:#FF5023;" points="40,455 40,40 247.5,40 247.5,0 0,0 0,495 247.5,495 247.5,455 	"/>
	<path style="fill:#FF5023;" d="M105.213,308.587c0.664,0,1.201-0.523,1.307-1.27l3.526-27.67l-3.524-28.289
		c-0.107-0.751-0.644-1.272-1.308-1.272c-0.669,0-1.22,0.536-1.31,1.273c0,0.003-3.097,28.287-3.097,28.287l3.097,27.663
		C103.992,308.051,104.544,308.587,105.213,308.587z"/>
	<path style="fill:#FF5023;" d="M93.566,298.073c0.639,0,1.156-0.502,1.26-1.224l2.728-17.202l-2.728-17.5
		c-0.103-0.721-0.622-1.226-1.26-1.226c-0.657,0-1.176,0.508-1.263,1.232L90,279.647l2.303,17.196
		C92.39,297.567,92.909,298.073,93.566,298.073z"/>
	<path style="fill:#FF5023;" d="M117.588,313.536c0.817,0,1.479-0.649,1.576-1.542l3.341-32.345l-3.339-33.565
		c-0.099-0.897-0.762-1.545-1.578-1.545c-0.832,0-1.496,0.65-1.58,1.546c0,0.002-2.939,33.564-2.939,33.564l2.939,32.338
		C116.091,312.888,116.756,313.536,117.588,313.536z"/>
	<path style="fill:#FF5023;" d="M130.065,314.833c0.964,0,1.758-0.781,1.845-1.812l3.157-33.364l-3.157-34.493
		c-0.088-1.031-0.882-1.81-1.845-1.81c-0.976,0-1.772,0.781-1.85,1.816l-2.779,34.487l2.779,33.364
		C128.293,314.052,129.088,314.833,130.065,314.833z"/>
	<path style="fill:#FF5023;" d="M142.641,315.382c1.124,0,2.033-0.899,2.116-2.086l2.971-33.637l-2.972-32.003
		c-0.081-1.179-0.991-2.076-2.116-2.076c-1.135,0-2.045,0.898-2.115,2.089l-2.623,31.99l2.623,33.638
		C140.596,314.483,141.505,315.382,142.641,315.382z"/>
	<path style="fill:#FF5023;" d="M155.321,315.66c1.262,0,2.309-1.039,2.384-2.359c0,0.01,2.786-33.628,2.786-33.628l-2.786-52.05
		c-0.075-1.323-1.122-2.358-2.384-2.358c-1.272,0-2.321,1.037-2.385,2.361c0,0.001-2.463,52.048-2.463,52.048l2.463,33.635
		C153,314.621,154.049,315.66,155.321,315.66z"/>
	<path style="fill:#FF5023;" d="M167.906,315.898c1.419,0,2.584-1.154,2.652-2.63c-0.001,0.019,2.604-33.414,2.604-33.414
		l-2.604-63.951c-0.068-1.476-1.234-2.63-2.652-2.63c-1.429,0-2.594,1.155-2.657,2.63c0,0.004-2.302,63.951-2.302,63.951
		l2.305,33.426C165.311,314.744,166.477,315.898,167.906,315.898z"/>
	<path style="fill:#FF5023;" d="M180.982,315.654c1.575,0,2.858-1.27,2.923-2.898c-0.001,0.02,2.419-33.069,2.419-33.069
		l-2.419-69.289c-0.065-1.628-1.348-2.902-2.923-2.902c-1.584,0-2.868,1.276-2.924,2.903c0,0.002-2.144,69.288-2.144,69.288
		l2.145,33.082C178.115,314.38,179.398,315.654,180.982,315.654z"/>
	<path style="fill:#FF5023;" d="M193.966,315.719c1.733,0,3.133-1.392,3.19-3.167l2.237-32.86l-2.237-71.626
		c-0.057-1.78-1.457-3.172-3.191-3.172c-1.739,0-3.141,1.394-3.192,3.174l-1.985,71.621l1.987,32.877
		C190.825,314.327,192.226,315.719,193.966,315.719z"/>
	<path style="fill:#FF5023;" d="M207.051,315.687c1.889,0,3.407-1.516,3.459-3.444c0,0.023,2.053-32.546,2.053-32.546l-2.053-69.799
		c-0.052-1.928-1.57-3.438-3.459-3.438c-1.897,0-3.417,1.512-3.462,3.442l-1.826,69.795l1.828,32.562
		C203.634,314.171,205.154,315.687,207.051,315.687z"/>
	<path style="fill:#FF5023;" d="M220.237,315.746c2.045,0,3.683-1.628,3.728-3.712c0,0.027,1.868-32.331,1.868-32.331l-1.868-67.257
		c-0.045-2.077-1.683-3.708-3.728-3.708c-2.051,0-3.69,1.633-3.73,3.715l-1.667,67.246l1.668,32.357
		C216.547,314.118,218.187,315.746,220.237,315.746z"/>
	<path style="fill:#FF5023;" d="M229.537,311.989c0.045,0.898,0.386,1.724,0.931,2.377c0.736,0.882,1.838,1.447,3.058,1.447
		c1.084,0,2.074-0.447,2.798-1.168c0.723-0.72,1.18-1.714,1.201-2.811l0.167-3.179l1.517-28.946l-1.684-80.028
		c-0.024-1.372-0.733-2.584-1.79-3.3c-0.635-0.43-1.395-0.682-2.209-0.682c-0.791,0-1.53,0.24-2.153,0.648
		c-1.088,0.712-1.822,1.941-1.844,3.337l-0.014,0.755l-1.495,79.245c0,0.048,1.509,32.169,1.509,32.169
		C229.528,311.898,229.534,311.944,229.537,311.989z"/>
	<path style="fill:#FF5023;" d="M242.487,311.393c0.03,2.313,1.944,4.221,4.269,4.221c2.317,0,4.231-1.909,4.263-4.255
		c0,0.037,1.899-31.643,1.899-31.643c0-0.001-1.899-87.288-1.899-87.288c-0.021-1.542-0.861-2.892-2.093-3.636
		c-0.638-0.386-1.379-0.613-2.17-0.613c-1.017,0-1.956,0.366-2.692,0.974c-0.947,0.781-1.56,1.963-1.577,3.282l-0.009,0.439
		l-1.74,86.842l0.888,16.053L242.487,311.393z"/>
	<path style="fill:#FF5023;" d="M258.86,315.703c0.099,0.01,107.398,0,107.398,0c21.397,0,38.742-17.153,38.742-38.554
		c0-21.401-17.345-38.747-38.742-38.747c-5.309,0-10.374,1.076-14.986,3.008c-3.083-34.916-32.364-62.308-68.082-62.308
		c-8.741,0-17.26,1.718-24.786,4.63c-2.925,1.133-3.701,2.294-3.729,4.556c0,0.001,0,122.97,0,122.97
		C254.705,313.629,256.545,315.471,258.86,315.703z"/>
</g>
<g>
</g>
<g>
</g>
<g>
</g>
<g>
</g>
<g>
</g>
<g>
</g>
<g>
</g>
<g>
</g>
<g>
</g>
<g>
</g>
<g>
</g>
<g>
</g>
<g>
</g>
<g>
</g>
<g>
</g>
</svg>
